<?xml version="1.0" standalone="no"?>
<!DOCTYPE svg PUBLIC "-//W3C//DTD SVG 20010904//EN"
 "http://www.w3.org/TR/2001/REC-SVG-20010904/DTD/svg10.dtd">
<svg version="1.0" xmlns="http://www.w3.org/2000/svg"
 width="500.000000pt" height="500.000000pt" viewBox="0 0 500.000000 500.000000"
 preserveAspectRatio="xMidYMid meet">

<g transform="translate(0.000000,500.000000) scale(0.100000,-0.100000)"
fill="#000000" stroke="none">
<path d="M2255 3944 c-607 -112 -1059 -550 -1191 -1154 -15 -68 -19 -127 -19
-290 0 -163 4 -222 19 -290 128 -586 560 -1018 1146 -1146 68 -15 127 -19 290
-19 163 0 222 4 290 19 586 128 1018 560 1146 1146 15 68 19 127 19 290 0 163
-4 222 -19 290 -127 579 -548 1006 -1125 1142 -116 27 -438 34 -556 12z m504
-99 c255 -51 496 -176 682 -353 120 -114 207 -231 279 -377 110 -223 144 -369
144 -615 0 -115 -5 -191 -17 -250 -52 -263 -175 -503 -355 -691 -114 -120
-231 -207 -377 -279 -223 -110 -369 -144 -615 -144 -246 0 -392 34 -615 144
-378 187 -647 542 -732 970 -24 117 -24 383 0 500 26 129 62 233 127 365 205
414 599 687 1080 749 66 8 325 -4 399 -19z"/>
<path d="M1680 2720 l0 -310 62 0 61 0 -6 228 -5 227 35 -70 c64 -129 207
-377 219 -382 6 -2 37 -3 68 -1 l56 3 -173 305 -174 305 -71 3 -72 3 0 -311z"/>
<path d="M2280 2720 l0 -310 60 0 60 0 0 310 0 310 -60 0 -60 0 0 -310z"/>
<path d="M2680 2721 l0 -311 65 0 65 0 0 45 0 45 133 0 c154 0 218 -15 267
-60 29 -27 39 -30 96 -30 l65 0 -15 29 c-23 43 -82 90 -132 103 -24 7 -44 15
-44 19 0 4 13 12 29 19 70 29 111 105 111 205 0 110 -45 172 -157 216 -52 20
-80 23 -270 27 l-213 4 0 -311z m391 198 c34 -7 64 -22 87 -44 32 -29 36 -39
39 -91 5 -81 -16 -121 -82 -154 -44 -22 -66 -25 -177 -29 l-128 -3 0 166 0
166 105 0 c57 0 127 -5 156 -11z"/>
<path d="M2163 2300 c0 -47 2 -66 4 -43 3 28 10 46 22 53 25 13 31 4 31 -47 0
-23 5 -43 10 -43 13 0 13 66 -1 92 -8 14 -17 18 -34 14 -21 -5 -24 -2 -28 26
-2 18 -4 -5 -4 -52z"/>
<path d="M1782 2288 l1 -73 6 59 6 60 28 -52 c15 -28 32 -54 37 -57 6 -4 9 23
8 67 l-1 73 -6 -58 -6 -57 -30 55 c-16 30 -33 55 -37 55 -4 0 -7 -33 -6 -72z"/>
<path d="M2599 2343 c-4 -76 9 -123 34 -123 7 0 7 4 -1 12 -16 16 -15 85 1 91
10 4 10 6 0 6 -7 1 -13 8 -13 16 0 21 -20 19 -21 -2z"/>
<path d="M2780 2289 l0 -70 36 3 c44 4 65 28 48 56 -8 12 -8 22 0 35 14 23
-15 47 -56 47 l-28 0 0 -71z m65 36 c0 -13 -8 -21 -22 -23 -19 -3 -23 1 -23
23 0 22 4 26 23 23 14 -2 22 -10 22 -23z m5 -45 c20 -13 2 -44 -29 -48 -18 -3
-21 2 -21 27 0 33 19 41 50 21z"/>
<path d="M1953 2275 c0 -33 2 -45 4 -27 2 18 2 45 0 60 -2 15 -4 0 -4 -33z"/>
<path d="M2043 2323 c-22 -8 -14 -39 13 -52 29 -13 27 -36 -4 -35 -12 0 -19
-3 -16 -8 10 -15 43 -8 54 12 9 18 7 23 -19 38 -34 19 -35 37 -3 36 12 0 19 3
16 8 -6 9 -22 9 -41 1z"/>
<path d="M2320 2320 c-12 -8 -9 -10 10 -8 15 2 25 -2 25 -10 0 -7 -11 -18 -25
-25 -14 -7 -25 -21 -25 -32 0 -16 7 -20 37 -20 38 0 38 0 38 41 0 56 -24 77
-60 54z m28 -81 c-20 -13 -28 -11 -28 10 0 23 33 33 38 12 2 -7 -2 -17 -10
-22z"/>
<path d="M2453 2275 c0 -47 1 -51 4 -18 3 28 10 46 22 53 25 13 31 4 31 -47 0
-23 5 -43 10 -43 6 0 10 20 10 44 0 52 -21 76 -50 58 -14 -9 -20 -8 -23 1 -3
7 -5 -15 -4 -48z"/>
<path d="M2950 2319 c-12 -9 -11 -10 7 -6 12 3 27 -1 34 -9 8 -10 5 -15 -15
-20 -58 -14 -58 -66 0 -61 33 2 34 4 34 43 0 56 -25 78 -60 53z m38 -75 c-17
-18 -38 -11 -38 11 0 16 31 25 45 13 5 -5 3 -14 -7 -24z"/>
<path d="M3080 2315 c-15 -18 -6 -33 27 -46 33 -12 24 -35 -13 -32 -24 2 -26
0 -11 -8 23 -14 57 -2 57 20 0 10 -12 23 -26 30 -31 14 -26 37 7 33 19 -2 21
0 9 8 -21 14 -36 12 -50 -5z"/>
<path d="M3203 2286 c2 -55 26 -82 49 -57 11 12 10 13 -4 8 -21 -7 -30 6 -39
58 -7 40 -7 39 -6 -9z"/>
<path d="M3268 2288 c-3 -24 -1 -50 3 -58 5 -9 9 7 9 43 0 67 -6 75 -12 15z"/>
<path d="M1687 2163 c-4 -3 -7 -37 -7 -75 l0 -68 60 0 60 0 0 75 0 75 -53 0
c-30 0 -57 -3 -60 -7z"/>
<path d="M2180 2166 c0 -2 18 -36 41 -75 l41 -71 69 0 70 0 -3 73 -3 72 -107
3 c-60 1 -108 1 -108 -2z"/>
<path d="M2687 2163 c-4 -3 -7 -38 -7 -76 l0 -69 218 4 c256 6 317 19 396 89
25 22 46 45 46 50 0 19 -137 10 -192 -13 -43 -17 -79 -22 -195 -26 l-143 -4 0
26 c0 25 -2 26 -58 26 -32 0 -62 -3 -65 -7z"/>
</g>
</svg>
